<?xml version="1.0" standalone="no"?><!DOCTYPE svg PUBLIC "-//W3C//DTD SVG 1.1//EN" "http://www.w3.org/Graphics/SVG/1.1/DTD/svg11.dtd"><svg t="1759027951238" class="icon" viewBox="0 0 1027 1024" version="1.1" xmlns="http://www.w3.org/2000/svg" p-id="12277" xmlns:xlink="http://www.w3.org/1999/xlink" width="200.5859375" height="200"><path d="M153.6 822.613333C68.266667 822.613333 30.72 791.893333 13.653333 761.173333c-23.893333-40.96-27.306667-112.64 81.92-228.693333 17.066667-17.066667 34.133333-37.546667 54.613334-54.613333h3.413333c17.066667-13.653333 44.373333-6.826667 58.026667 13.653333 13.653333 17.066667 6.826667 40.96-6.826667 54.613333l-47.786667 47.786667c-71.68 78.506667-78.506667 119.466667-71.68 133.12 6.826667 13.653333 47.786667 30.72 150.186667 10.24 13.653333-3.413333 23.893333-6.826667 37.546667-6.826667 6.826667-3.413333 13.653333-3.413333 20.48-6.826666l30.72-10.24c6.826667-3.413333 13.653333-3.413333 20.48-6.826667 17.066667-6.826667 37.546667-13.653333 54.613333-20.48 13.653333-6.826667 23.893333-10.24 37.546667-17.066667 10.24-3.413333 23.893333-10.24 34.133333-13.653333l13.653333-6.826667c10.24-3.413333 20.48-10.24 30.72-13.653333 40.96-20.48 78.506667-44.373333 119.466667-68.266667l30.72-17.066666 10.24-6.826667 30.72-20.48c13.653333-6.826667 23.893333-17.066667 34.133333-23.893333 17.066667-13.653333 30.72-23.893333 47.786667-37.546667 3.413333-3.413333 10.24-6.826667 17.066667-13.653333s17.066667-13.653333 23.893333-20.48c6.826667-6.826667 13.653333-10.24 17.066667-17.066667l3.413333-3.413333 27.306667-27.306667c71.68-78.506667 78.506667-122.88 71.68-136.533333-13.653333-10.24-51.2-27.306667-157.013334-6.826667-20.48 3.413333-44.373333 10.24-68.266666 17.066667-17.066667 6.826667-37.546667-3.413333-47.786667-17.066667-10.24-20.48-3.413333-44.373333 17.066667-54.613333 3.413333-3.413333 6.826667-3.413333 6.826666-3.413334 27.306667-6.826667 51.2-13.653333 75.093334-17.066666 157.013333-34.133333 218.453333 10.24 238.933333 47.786666 23.893333 40.96 27.306667 112.64-81.92 228.693334-6.826667 10.24-17.066667 20.48-30.72 30.72l-3.413333 3.413333c-6.826667 3.413333-13.653333 10.24-17.066667 17.066667-6.826667 6.826667-17.066667 13.653333-27.306667 23.893333-3.413333 3.413333-10.24 10.24-17.066666 13.653333-17.066667 13.653333-34.133333 27.306667-47.786667 37.546667-13.653333 6.826667-23.893333 17.066667-37.546667 27.306667l-30.72 20.48-10.24 6.826666c-13.653333 6.826667-23.893333 13.653333-34.133333 20.48-37.546667 23.893333-81.92 47.786667-126.293333 68.266667-10.24 6.826667-23.893333 10.24-34.133334 17.066667l-10.24 6.826666c-10.24 6.826667-23.893333 10.24-34.133333 17.066667-13.653333 6.826667-27.306667 13.653333-40.96 17.066667-20.48 6.826667-37.546667 17.066667-58.026667 23.893333-6.826667 3.413333-13.653333 3.413333-23.893333 6.826667-10.24 3.413333-23.893333 6.826667-34.133333 10.24l-23.893334 6.826666-40.96 10.24H153.6z" fill="#EEA76D" p-id="12278"></path><path d="M529.066667 901.12c-34.133333 0-71.68-3.413333-105.813334-13.653333-98.986667-27.306667-184.32-95.573333-235.52-184.32s-64.853333-197.973333-34.133333-296.96S245.76 221.866667 334.506667 170.666667c187.733333-105.813333 426.666667-37.546667 532.48 150.186666 51.2 88.746667 64.853333 197.973333 34.133333 296.96S805.546667 802.133333 716.8 853.333333c-58.026667 30.72-122.88 47.786667-187.733333 47.786667z m-269.653334-238.933333c40.96 71.68 105.813333 122.88 187.733334 146.773333 78.506667 23.893333 163.84 13.653333 235.52-27.306667s122.88-105.813333 146.773333-187.733333c23.893333-78.506667 13.653333-163.84-27.306667-235.52C713.386667 208.213333 525.653333 157.013333 375.466667 238.933333c-71.68 40.96-122.88 105.813333-146.773334 187.733334-20.48 81.92-10.24 163.84 30.72 235.52z" fill="#EEA76D" p-id="12279"></path><path d="M153.6 822.613333C61.44 822.613333 23.893333 785.066667 10.24 750.933333c-6.826667-20.48 3.413333-44.373333 23.893333-54.613333 20.48-6.826667 44.373333 3.413333 54.613334 23.893333 3.413333 17.066667 47.786667 30.72 146.773333 10.24 13.653333-3.413333 23.893333-6.826667 37.546667-6.826666 187.733333-47.786667 426.666667-184.32 570.026666-317.44 10.24-6.826667 17.066667-17.066667 27.306667-27.306667 71.68-78.506667 78.506667-119.466667 71.68-133.12-10.24-20.48-3.413333-44.373333 17.066667-54.613333 20.48-10.24 44.373333-3.413333 54.613333 17.066666 23.893333 40.96 27.306667 112.64-81.92 228.693334l-30.72 30.72C750.933333 614.4 498.346667 754.346667 296.96 805.546667l-40.96 10.24c-40.96 6.826667-78.506667 6.826667-102.4 6.826666z" fill="#EEA76D" p-id="12280"></path></svg>