<?xml version="1.0" standalone="no"?><!DOCTYPE svg PUBLIC "-//W3C//DTD SVG 1.1//EN" "http://www.w3.org/Graphics/SVG/1.1/DTD/svg11.dtd"><svg t="1759027808743" class="icon" viewBox="0 0 1024 1024" version="1.1" xmlns="http://www.w3.org/2000/svg" p-id="11052" xmlns:xlink="http://www.w3.org/1999/xlink" width="200" height="200"><path d="M166.743 30.413v678.815s253.189-29.464 303.138 57.063c0-146.922 2.663-667.283 2.663-667.283s-55.015-85.66-305.8-68.595z m692.274 0v678.815S605.83 679.764 555.88 766.291c0-146.922-2.664-667.283-2.664-667.283s55.016-85.66 305.801-68.595z" fill="#3DC550" p-id="11053"></path><path d="M512.426 996.274c-11.627 0-23.189-3.934-32.737-11.666l-100.483-81.46H65.481c-29.129 0-52.742-24.235-52.742-54.13v-707.28L118.288 95.34V794.89h279.365c11.886 0 23.383 4.133 32.672 11.665l85.024 68.929 98.859-66.595c8.603-5.802 18.675-8.884 28.969-8.866h263.516V102.14l105.55 46.396v705.614c0 29.895-23.614 54.13-52.743 54.13H658.96l-117.5 79.127c-8.636 5.782-18.723 8.862-29.034 8.866z" fill="#3DC550" p-id="11054"></path><path d="M906.628 462.38c30.788-86.86 47.611-180.586 47.611-278.379 0-20.798-0.78-41.463-2.273-61.862l-45.338-19.932zM643.112 800.022c-10.267 0-20.33 3.066-28.97 8.866l-98.858 66.595-85.024-68.929c-9.307-7.541-20.814-11.65-32.672-11.665H118.223V95.34l-105.55 46.397v707.28c0 29.895 23.614 54.13 52.743 54.13h313.79l55.47 44.996c90.48-34.131 173.231-84.66 244.745-148.122z" fill="#3DC550" p-id="11055"></path><path d="M118.223 689.163V95.341l-105.55 46.397v564.024a774.713 774.713 0 0 0 105.55-16.599z m48.52-658.75v645.885c113.994-34.131 217.4-93.86 303.918-172.654 0.78-191.852 1.883-404.636 1.883-404.636s-55.015-85.66-305.8-68.595z m386.538 68.595s0.78 152.255 1.494 315.376c87.103-107.725 147.64-238.849 171.348-382.905-138.351 14-172.842 67.529-172.842 67.529z" fill="#3DC550" p-id="11056"></path><path d="M118.223 325.057V95.341l-105.55 46.397V373.12c36.505-13.399 71.774-29.53 105.55-48.063zM406.552 55.411c-45.858-18.065-120.749-33.13-239.809-24.998v265.713c95.653-61.892 177.396-143.943 239.809-240.715z" fill="#3DC550" p-id="11057"></path></svg>